<?xml version="1.0" encoding="utf-8"?>
<!-- Generator: Adobe Illustrator 17.1.0, SVG Export Plug-In . SVG Version: 6.00 Build 0)  -->
<!DOCTYPE svg PUBLIC "-//W3C//DTD SVG 1.1//EN" "http://www.w3.org/Graphics/SVG/1.1/DTD/svg11.dtd">
<svg version="1.1" id="Layer_1" xmlns="http://www.w3.org/2000/svg" xmlns:xlink="http://www.w3.org/1999/xlink" x="0px" y="0px"
	 viewBox="0 0 80 80" style="enable-background:new 0 0 80 80;" xml:space="preserve">
<style type="text/css">
	.st0{fill:#374654;}
	.st1{fill:#FFFFFF;}
</style>
<g>
	<g>
		<g>
			<path class="st0" d="M26.6,36.8c-0.5,0-1-0.4-1-1v-9.2c0-0.5,0.4-1,1-1c0.5,0,1,0.4,1,1v9.2C27.6,36.4,27.2,36.8,26.6,36.8z"/>
		</g>
		<g>
			<path class="st0" d="M54.4,36.8c-0.5,0-1-0.4-1-1v-9.2c0-0.5,0.4-1,1-1c0.5,0,1,0.4,1,1v9.2C55.4,36.4,54.9,36.8,54.4,36.8z"/>
		</g>
		<g>
			<path class="st0" d="M40.5,66.1c-14.6,0-26.4-11.9-26.4-26.4v-1.6c0-4.4,3.6-7.9,7.9-7.9h4.6v2H22c-3.3,0-5.9,2.7-5.9,5.9v1.6
				c0,13.5,11,24.4,24.4,24.4c13.5,0,24.4-11,24.4-24.4v-1.6c0-3.3-2.7-5.9-5.9-5.9h-4.6v-2H59c4.4,0,7.9,3.6,7.9,7.9v1.6
				C66.9,54.3,55.1,66.1,40.5,66.1z"/>
		</g>
		<g>
			<rect x="39.5" y="65.1" class="st0" width="2" height="13.9"/>
		</g>
	</g>
	<g>
		<g>
			<path class="st0" d="M57.3,80H21.9c-4.9,0-8.9-4.2-8.9-9.4v-0.6c0-5.3,4-9.6,8.9-9.6c4.5,0,6.4-3.8,6.9-5c1-2.5,0.9-5-0.4-6.3
				c-6.3-6.2-10.3-16.5-10.3-26.2C18.2,9,26.6,0,39.6,0S61,9,61,22.9c0,9.8-3.9,19.9-10,25.9c0,0.1-0.1,0.2-0.2,0.3
				c-0.3,0.3-0.5,0.6-0.7,1c-0.4,1.3-0.4,3.4,0.4,5.5c0.1,0.3,0.3,0.6,0.5,1c0.3,0.5,0.7,1,1.1,1.5c1.2,1.2,3,2.3,5.9,2.3
				c0.1,0,0.3,0,0.4,0.1c4.4,0.6,7.8,4.6,7.8,9.5v0.6C66.2,75.8,62.2,80,57.3,80z M24.7,78h32.6c3.8,0,6.9-3.3,6.9-7.4v-0.6
				c0-4.1-3.2-7.6-6.9-7.6c-2.5,0-4.6-1-6.1-2.4c-0.8-0.7-1.4-1.5-2-2.4c-0.3-0.5-0.5-0.9-0.7-1.4c-1-2.3-1.1-4.7-0.4-6.6
				c0.2-0.8,0.6-1.4,1.1-1.9C55.2,42,59,32.3,59,22.9C59,10.2,51.4,2,39.6,2s-19.4,8.2-19.4,20.9c0,9,3.9,19,9.7,24.8
				c1.8,1.8,2.2,5.2,0.8,8.5c-1.2,3-4.2,6.2-8.8,6.2c-3.7,0-6.9,3.5-6.9,7.6v0.6c0,4.1,3.1,7.4,6.9,7.4H24.7z"/>
		</g>
	</g>
</g>
</svg>
