<?xml version="1.0" encoding="utf-8"?>
<!-- Generator: Adobe Illustrator 17.1.0, SVG Export Plug-In . SVG Version: 6.00 Build 0)  -->
<!DOCTYPE svg PUBLIC "-//W3C//DTD SVG 1.1//EN" "http://www.w3.org/Graphics/SVG/1.1/DTD/svg11.dtd">
<svg version="1.1" id="Layer_1" xmlns="http://www.w3.org/2000/svg" xmlns:xlink="http://www.w3.org/1999/xlink" x="0px" y="0px"
	 viewBox="0 0 214 60" style="enable-background:new 0 0 214 60;" xml:space="preserve">
<style type="text/css">
	.st0{fill:#374654;}
	.st1{fill:#FFFFFF;}
</style>
<g>
	<g>
		<g>
			<path class="st1" d="M143,41c0,2.6-0.3,5.1-0.9,7.4c-0.6,2.3-1.6,4.3-3.1,6c-1.5,1.7-3.4,3.1-5.9,4.1c-2.5,1-5.6,1.5-9.4,1.5
				c-3.5,0-6.5-0.4-9-1.3c-2.5-0.8-4.6-1.8-6.2-3l4-9.3c1.5,0.9,3.1,1.6,4.8,2.3c1.7,0.7,3.5,1,5.5,1c2.9,0,5-0.7,6.3-2.2
				c1.3-1.4,1.9-3.8,1.9-7.2V5.6h12V41z"/>
			<path class="st1" d="M166.3,6.8c0,2.1-0.7,3.8-2,5c-1.4,1.2-3,1.8-4.8,1.8c-1.8,0-3.4-0.6-4.8-1.8c-1.4-1.2-2-2.9-2-5
				c0-2.1,0.7-3.8,2-5c1.4-1.2,3-1.8,4.8-1.8c1.8,0,3.4,0.6,4.8,1.8C165.6,3,166.3,4.7,166.3,6.8z M165.2,58.9h-11.5V18.5h11.5V58.9
				z"/>
			<path class="st1" d="M213.8,38.6c0,3.2-0.5,6.1-1.4,8.7c-0.9,2.6-2.3,4.9-4,6.8c-1.7,1.9-3.8,3.3-6.3,4.3c-2.4,1-5.2,1.5-8.2,1.5
				c-3,0-5.7-0.5-8.1-1.5c-2.4-1-4.5-2.5-6.3-4.3c-1.7-1.9-3.1-4.1-4.1-6.8c-1-2.6-1.5-5.6-1.5-8.7c0-3.2,0.5-6.1,1.5-8.7
				c1-2.6,2.4-4.8,4.2-6.7c1.8-1.8,3.9-3.3,6.3-4.3c2.4-1,5.1-1.5,8-1.5c2.9,0,5.6,0.5,8,1.5c2.4,1,4.5,2.5,6.3,4.3
				c1.7,1.8,3.1,4.1,4.1,6.7C213.4,32.5,213.8,35.4,213.8,38.6z M202.1,38.6c0-3.5-0.7-6.3-2.1-8.3c-1.4-2-3.4-3-6-3
				c-2.6,0-4.6,1-6.1,3c-1.4,2-2.2,4.8-2.2,8.3c0,3.5,0.7,6.3,2.2,8.4c1.4,2.1,3.5,3.1,6.1,3.1c2.6,0,4.6-1,6-3.1
				C201.4,45,202.1,42.2,202.1,38.6z"/>
		</g>
	</g>
	<g>
		<path class="st1" d="M40.8,32.5L40.8,32.5c0,0.4,0,0.8-0.1,1.2h13.5c0-0.4,0-0.8,0-1.2h0c0-0.4,0-0.9,0.1-1.3H40.9
			C40.8,31.7,40.8,32.1,40.8,32.5z"/>
		<path class="st1" d="M47.8,50.1c-0.7,0.8-1.5,1.6-2.3,2.3H27.3l-0.9-2.3H47.8z M38,40.8c-0.7,0.9-1.4,1.7-2.3,2.3h16.5
			c0.3-0.8,0.6-1.5,0.9-2.3H38z M43,21.9c-0.3,0.8-0.6,1.5-0.9,2.3h15.1c0.7-0.9,1.5-1.7,2.3-2.3H43z M42.6,54.8H27.3v2.3h11.2
			C39.9,56.5,41.3,55.7,42.6,54.8z M49.7,12.5c-0.8,0.7-1.6,1.5-2.3,2.3h20.4v-2.3H49.7z M56.9,7.9c-1.5,0.7-2.9,1.4-4.2,2.3h15.2
			V7.9H56.9z M41.5,26.6c-0.2,0.8-0.3,1.5-0.4,2.3h13.8c0.2-0.8,0.5-1.6,0.9-2.3H41.5z M39.5,38.4h14.2c0.2-0.8,0.3-1.5,0.4-2.3
			H40.4C40.1,36.9,39.8,37.7,39.5,38.4z M31.3,45.4c-0.2,0.1-0.4,0.1-0.7,0.1c-1.1,0.3-2.3,0.5-3.5,0.5c-1.2,0-2.3-0.1-3.4-0.4
			c0,0-0.1,0-0.1,0l-0.3,2.2h26.2c0.5-0.8,1-1.5,1.4-2.3H31.3z M67.8,19.1c1.1,0,2.1,0.1,3.1,0.4c0.1,0,0.2,0,0.2,0v-2.2H45.6
			c-0.5,0.8-1,1.5-1.4,2.3h20C65.3,19.2,66.5,19.1,67.8,19.1z"/>
		<path class="st1" d="M67.8,5.5c-3.6,0-7.1,0.7-10.2,2c5.7,2.3,10.5,6.6,13.4,11.9c5.9,1.5,10.3,6.8,10.3,13.1
			C81.3,40,75.3,46,67.8,46S54.3,40,54.3,32.5h-0.1c0-14.9-12.1-27-27-27c-14.9,0-27,12.1-27,27s12.1,27,27,27c3.6,0,7-0.7,10.1-2
			c-5.8-2.3-10.6-6.6-13.6-12c-5.8-1.5-10.1-6.8-10.1-13.1c0-7.5,6.1-13.5,13.5-13.5c7.5,0,13.5,6.1,13.5,13.5h0.1
			c0,14.9,12.1,27,27,27s27-12.1,27-27S82.8,5.5,67.8,5.5z"/>
	</g>
</g>
</svg>
