<?xml version="1.0" encoding="utf-8"?>
<!-- Generator: Adobe Illustrator 17.1.0, SVG Export Plug-In . SVG Version: 6.00 Build 0)  -->
<!DOCTYPE svg PUBLIC "-//W3C//DTD SVG 1.1//EN" "http://www.w3.org/Graphics/SVG/1.1/DTD/svg11.dtd">
<svg version="1.1" id="Layer_1" xmlns="http://www.w3.org/2000/svg" xmlns:xlink="http://www.w3.org/1999/xlink" x="0px" y="0px"
	 viewBox="0 0 80 80" style="enable-background:new 0 0 80 80;" xml:space="preserve">
<style type="text/css">
	.st0{fill:#374654;}
	.st1{fill:#FFFFFF;}
</style>
<g>
	<path class="st0" d="M67.8,80H12c-1.4,0-5.2,0-5.2-5.2c0-0.2,1.2-12.1,3.6-23.8c3.4-16.4,7.4-24.4,12.3-24.4h34.7
		c4.6,0,8.5,7.9,12.1,24.3c2.5,11.6,3.9,23.4,3.9,23.6C73.3,80,69.3,80,67.8,80z M22.6,28.6c-6.8,0-12.1,28.3-13.8,46.2
		c0,3.1,1.6,3.1,3.2,3.1h55.8c1.6,0,3.4,0,3.4-3.4c-2.1-17.7-7.7-45.9-14-45.9H22.6z"/>
</g>
<g>
	<path class="st0" d="M10.5,26.6L10.5,26.6c-1.7,0-4.8-0.2-6.7-1.3c-1.2-0.7-2.4-3-2.6-4.2C0.6,17.8,2.3,8.9,5.4,6.7
		C11.7,2.2,31,0.1,39.9,0l0.6,0c7.7,0,29.9,2.1,34.6,6.8c2.6,2.6,4,10.9,3.8,14.3c-0.1,1.4-1,3.3-2.3,4.2c-1.3,0.8-3.3,1.2-6.1,1.2
		c-3.2,0-6.4-0.6-8.2-1.1c-1.4-0.4-4.1-2.5-4.8-3.9c-0.5-1-0.2-2.2,0.1-3.4c0.1-0.6,0.4-1.7,0.3-1.9c-2.3-2.7-10.6-3.9-17.4-3.9
		l-0.6,0c-5.8,0.1-15,1.5-17.5,4.3c-0.1,0.2,0,1.3,0,1.9c0.1,1,0.2,2-0.1,2.8c-0.6,1.4-2.7,3.5-4.1,4.1
		C16.5,26.1,13.5,26.6,10.5,26.6z M40.5,2.1l-0.5,0C31.5,2.2,12.4,4.2,6.5,8.3c-2.2,1.5-3.8,9.4-3.4,12.4c0.1,0.9,1.1,2.5,1.6,2.8
		c1.1,0.6,3.2,1,5.7,1c0,0,0,0,0,0c2.7,0,5.4-0.4,7-1c0.9-0.4,2.6-2.1,3-3c0.1-0.3,0-1.2-0.1-1.7c-0.1-1.3-0.3-2.6,0.5-3.5
		c3.5-4,14.9-5,19.1-5l0.6,0c2.5,0,15.2,0.2,18.9,4.6c0.9,1,0.5,2.5,0.2,3.8c-0.2,0.7-0.4,1.7-0.3,1.9c0.4,0.8,2.6,2.6,3.6,2.9
		c1.6,0.5,4.6,1,7.6,1c2.3,0,4-0.3,4.9-0.9c0.6-0.4,1.3-1.7,1.4-2.6c0.2-3.3-1.2-10.8-3.2-12.7C70,4.6,50,2.1,40.5,2.1z"/>
</g>
<g>
	<path class="st0" d="M40,68c-8.1,0-14.7-6.6-14.7-14.7S31.9,38.6,40,38.6s14.7,6.6,14.7,14.7S48.2,68,40,68z M40,40.6
		c-7,0-12.6,5.7-12.6,12.6S33.1,65.9,40,65.9s12.6-5.7,12.6-12.6S47,40.6,40,40.6z"/>
</g>
<g>
	<rect x="28.1" y="19.6" class="st0" width="2.1" height="8"/>
</g>
<g>
	<rect x="49.5" y="19.6" class="st0" width="2.1" height="8"/>
</g>
</svg>
