<?xml version="1.0" encoding="utf-8"?>
<!-- Generator: Adobe Illustrator 17.1.0, SVG Export Plug-In . SVG Version: 6.00 Build 0)  -->
<!DOCTYPE svg PUBLIC "-//W3C//DTD SVG 1.1//EN" "http://www.w3.org/Graphics/SVG/1.1/DTD/svg11.dtd">
<svg version="1.1" id="Layer_1" xmlns="http://www.w3.org/2000/svg" xmlns:xlink="http://www.w3.org/1999/xlink" x="0px" y="0px"
	 viewBox="0 0 80 80" style="enable-background:new 0 0 80 80;" xml:space="preserve">
<style type="text/css">
	.st0{fill:#374654;}
	.st1{fill:#FFFFFF;}
</style>
<path class="st0" d="M40,0C17.9,0,0,17.9,0,40s17.9,40,40,40s40-17.9,40-40S62.1,0,40,0z M40,78C19,78,2,61,2,40S19,2,40,2
	s38,17,38,38S61,78,40,78z"/>
<path class="st0" d="M58.1,27.2c-2.3-2.3-6-2.6-8.7-0.1L36.5,40l-3.7-3.7c-2.4-2.4-6.5-2.4-8.9,0c-2.4,2.4-2.5,6.2-0.1,8.8l9.2,9.2
	c1,0.9,2.2,1.3,3.5,1.3c1.2,0,2.4-0.4,3.6-1.4c0,0,18.5-18.5,18.6-18.6C60.6,33,60.4,29.5,58.1,27.2z M36.5,43.4
	c0.1-0.1,14.1-14.3,14.3-14.4c0.7-0.9,1.8-1.4,3-1.4c2.2,0,4,1.8,4,4c0,1.2-0.6,2.3-1.4,3c-0.1,0.2-16.7,17-16.9,17.1c0,0,0,0,0,0
	c-0.4,0.4-0.8,0.8-1.3,1c0,0,0,0-0.1,0c-0.5,0.2-1.1,0.4-1.7,0.4c-0.6,0-1.1-0.1-1.6-0.4c0,0,0,0,0,0c-0.5-0.2-0.9-0.5-1.3-0.9
	c-0.1-0.1-8.1-8.3-8.2-8.4c-0.8-0.7-1.3-1.8-1.3-2.9c0-2.2,1.8-4,4-4c1.2,0,2.2,0.5,2.9,1.3"/>
</svg>
