<?xml version="1.0" encoding="utf-8"?>
<!-- Generator: Adobe Illustrator 17.1.0, SVG Export Plug-In . SVG Version: 6.00 Build 0)  -->
<!DOCTYPE svg PUBLIC "-//W3C//DTD SVG 1.1//EN" "http://www.w3.org/Graphics/SVG/1.1/DTD/svg11.dtd">
<svg version="1.1" id="Layer_1" xmlns="http://www.w3.org/2000/svg" xmlns:xlink="http://www.w3.org/1999/xlink" x="0px" y="0px"
	 viewBox="0 0 80 80" style="enable-background:new 0 0 80 80;" xml:space="preserve">
<style type="text/css">
	.st0{fill:#374654;}
	.st1{fill:#FFFFFF;}
</style>
<g>
	<path class="st0" d="M6.5,75.9h66.9c6.5,0,6.5,0,6.5-6.5l0-36.7c-0.1-1.6,0-2.7-1.9-4.2c-0.1-0.1-0.2-0.1-0.2-0.2L44,5.3
		c-2.3-1.6-5.8-1.6-8.1,0C30.6,8.9,4.3,26.7,2.5,28c-0.1,0-0.1,0.1-0.2,0.1v0C0,29.8,0,31.2,0,33.1v36.2
		C-0.1,75.9-0.1,75.9,6.5,75.9z M3.5,74c-0.3,0-0.6-0.1-0.9-0.2l26.3-22.9l6.6,4.6c0.3,0.2,0.6,0.5,1,0.7c2.1,1.2,5.1,1.2,7.2,0
		c0.4-0.2,0.7-0.5,0.9-0.6l6.7-4.7l26.4,22.9C77.3,73.9,77,74,76.6,74L3.5,74z M78.2,71.8c0,0.1-0.1,0.3-0.1,0.4L52.5,50l25.7-17.8
		V71.8z M37.2,7c1.7-1.1,3.8-1.1,5.7,0.1l34.9,23.3L42.4,54.7c-0.1,0.1-0.3,0.2-0.5,0.3c-1.1,0.6-2.7,0.6-3.8,0
		c-0.2-0.1-0.3-0.2-0.6-0.4L2.3,30.3C6.1,27.7,26.9,13.9,37.2,7z M1.7,32l25.6,17.9L1.8,72.1c0-0.1-0.1-0.3-0.1-0.4L1.7,32z"/>
</g>
</svg>
