<?xml version="1.0" encoding="utf-8"?>
<!-- Generator: Adobe Illustrator 17.1.0, SVG Export Plug-In . SVG Version: 6.00 Build 0)  -->
<!DOCTYPE svg PUBLIC "-//W3C//DTD SVG 1.1//EN" "http://www.w3.org/Graphics/SVG/1.1/DTD/svg11.dtd">
<svg version="1.1" id="Layer_1" xmlns="http://www.w3.org/2000/svg" xmlns:xlink="http://www.w3.org/1999/xlink" x="0px" y="0px"
	 viewBox="0 0 80 80" style="enable-background:new 0 0 80 80;" xml:space="preserve">
<style type="text/css">
	.st0{fill:#374654;}
	.st1{fill:#FFFFFF;}
</style>
<g>
	<path class="st0" d="M55.2,78H24.8c-2.7,0-5-2.2-5-5c0-2.5,1.9-4.6,4.3-4.9v0c2,0,3.6-1.6,3.6-3.6c0-2-1.6-3.6-3.6-3.6H9.5
		c-5,0-9.5-4.2-9.5-8.9v-41C0,6.2,4.4,2,9.5,2h62.4c4.7,0,8.1,3.8,8.1,8.9v41c0,5.2-3.4,8.9-8.1,8.9h-16c-2,0-3.6,1.6-3.6,3.6
		c0,2,1.6,3.6,3.6,3.6v0c2.4,0.3,4.3,2.4,4.3,4.9C60.2,75.8,57.9,78,55.2,78z M24.8,70L24.8,70c-1.6,0-3,1.4-3,3s1.3,3,3,3h30.4
		c1.6,0,3-1.3,3-3s-1.3-3-3-3v0c-2.8-0.3-5-2.7-5-5.6c0-1.4,0.5-2.7,1.3-3.6H28.4c0.8,1,1.3,2.3,1.3,3.6
		C29.8,67.3,27.6,69.7,24.8,70z M55.9,58.8h16c3.6,0,6.1-2.9,6.1-6.9v-5.6H2v5.6c0,3.6,3.6,6.9,7.5,6.9H55.9z M2,44.3h76V11.9H2
		V44.3z M2.1,9.9H78c-0.4-3.5-2.8-6-6.1-6H9.5C5.9,4,2.6,6.7,2.1,9.9z M40,56c-2,0-3.6-1.6-3.6-3.6c0-2,1.6-3.6,3.6-3.6
		s3.6,1.6,3.6,3.6C43.6,54.4,42,56,40,56z M40,50.7c-0.9,0-1.7,0.7-1.7,1.7c0,0.9,0.7,1.7,1.7,1.7s1.7-0.7,1.7-1.7
		C41.7,51.5,40.9,50.7,40,50.7z"/>
</g>
</svg>
