<?xml version="1.0" encoding="utf-8"?>
<!-- Generator: Adobe Illustrator 17.1.0, SVG Export Plug-In . SVG Version: 6.00 Build 0)  -->
<!DOCTYPE svg PUBLIC "-//W3C//DTD SVG 1.1//EN" "http://www.w3.org/Graphics/SVG/1.1/DTD/svg11.dtd">
<svg version="1.1" id="Layer_1" xmlns="http://www.w3.org/2000/svg" xmlns:xlink="http://www.w3.org/1999/xlink" x="0px" y="0px"
	 viewBox="0 0 80 80" style="enable-background:new 0 0 80 80;" xml:space="preserve">
<style type="text/css">
	.st0{fill:#374654;}
	.st1{fill:#FFFFFF;}
</style>
<path class="st0" d="M40,0C17.9,0,0,17.9,0,40s17.9,40,40,40s40-17.9,40-40S62.1,0,40,0z M56.3,34.6c-0.1,0.2-16.7,17-16.9,17.1
	c0,0,0,0,0,0c-0.4,0.4-0.8,0.8-1.3,1c0,0,0,0-0.1,0c-0.5,0.2-1.1,0.4-1.7,0.4c-0.6,0-1.1-0.1-1.6-0.4c0,0,0,0,0,0
	c-0.5-0.2-1.6-1.3-1.7-1.3c-0.1-0.1-7.7-7.9-7.8-8c-0.8-0.7-1.3-1.8-1.3-2.9c0-2.2,1.8-4,4-4c1.2,0,2.2,0.5,2.9,1.3
	c0.1,0.1,5.5,5.6,5.5,5.7c0.1-0.1,14.1-14.3,14.3-14.4c0.7-0.9,1.8-1.4,3-1.4c2.2,0,4,1.8,4,4C57.8,32.8,57.2,33.8,56.3,34.6z"/>
</svg>
