<?xml version="1.0" encoding="utf-8"?>
<!-- Generator: Adobe Illustrator 17.1.0, SVG Export Plug-In . SVG Version: 6.00 Build 0)  -->
<!DOCTYPE svg PUBLIC "-//W3C//DTD SVG 1.1//EN" "http://www.w3.org/Graphics/SVG/1.1/DTD/svg11.dtd">
<svg version="1.1" id="Layer_1" xmlns="http://www.w3.org/2000/svg" xmlns:xlink="http://www.w3.org/1999/xlink" x="0px" y="0px"
	 viewBox="0 0 80 80" style="enable-background:new 0 0 80 80;" xml:space="preserve">
<style type="text/css">
	.st0{fill:#374654;}
	.st1{fill:#FFFFFF;}
</style>
<g>
	<path class="st0" d="M55.8,80H24.9c-5.1,0-9-3.7-9-8.3V9.2c0-4.9,4.2-9.2,9-9.2h30.9c4.6,0,8.4,4.1,8.4,9.2v62.4
		C64.1,76.5,60.6,80,55.8,80z M17.9,64.1v7.5c0,4,3.6,6.4,7.1,6.4h30.9c3.8,0,6.4-2.6,6.4-6.4v-7.5H17.9z M17.9,62.1h44.3V13.9H17.9
		V62.1z M17.9,11.9h44.3V9.2c0-4-2.9-7.3-6.4-7.3H24.9c-3.7,0-7.1,3.5-7.1,7.3V11.9z M40.3,76.5c-2.7,0-5-2.2-5-5s2.2-5,5-5
		s5,2.2,5,5S43.1,76.5,40.3,76.5z M40.3,68.6c-1.6,0-3,1.3-3,3s1.3,3,3,3s3-1.3,3-3S42,68.6,40.3,68.6z M42.6,8.6h-5.3v-2h5.3V8.6z"
		/>
</g>
</svg>
