<?xml version="1.0" encoding="utf-8"?>
<!-- Generator: Adobe Illustrator 17.1.0, SVG Export Plug-In . SVG Version: 6.00 Build 0)  -->
<!DOCTYPE svg PUBLIC "-//W3C//DTD SVG 1.1//EN" "http://www.w3.org/Graphics/SVG/1.1/DTD/svg11.dtd">
<svg version="1.1" id="Layer_1" xmlns="http://www.w3.org/2000/svg" xmlns:xlink="http://www.w3.org/1999/xlink" x="0px" y="0px"
	 viewBox="0 0 80 80" style="enable-background:new 0 0 80 80;" xml:space="preserve">
<style type="text/css">
	.st0{fill:#374654;}
	.st1{fill:#FFFFFF;}
</style>
<g>
	<path class="st0" d="M66.4,32.3h-2.7v-8.6C63.7,10.6,53,0,39.9,0C26.8,0,16.1,10.6,16.1,23.7v8.6h-2.5c-2.5,0-4.6,2.1-4.6,4.6v38.5
		c0,2.5,2.1,4.6,4.6,4.6h52.8c2.5,0,4.6-2.1,4.6-4.6V36.9C71,34.4,68.9,32.3,66.4,32.3z M18.1,23.7c0-12,9.8-21.8,21.8-21.8
		c12,0,21.8,9.8,21.8,21.8v8.6h-6.2v-8.6c0-8.6-7-15.6-15.6-15.6s-15.6,7-15.6,15.6v8.6h-6.2V23.7z M53.6,23.7v8.6H26.2v-8.6
		c0-7.5,6.1-13.7,13.7-13.7C47.4,10,53.6,16.2,53.6,23.7z M69,75.4c0,1.4-1.2,2.6-2.6,2.6H13.6c-1.4,0-2.6-1.2-2.6-2.6V36.9
		c0-1.4,1.2-2.6,2.6-2.6h52.8c1.4,0,2.6,1.2,2.6,2.6V75.4z"/>
	<path class="st0" d="M39.9,45.6c-3.4,0-6.2,2.8-6.2,6.1c0,2,0.9,3.8,2.4,4.9v5.9c0,2.1,1.7,3.8,3.8,3.8c2.1,0,3.8-1.7,3.8-3.8v-6
		c1.4-1.1,2.3-2.9,2.3-4.8C46.1,48.3,43.3,45.6,39.9,45.6z M42.3,55.2l-0.5,0.5v6.9c0,1-0.8,1.9-1.9,1.9c-1,0-1.9-0.8-1.9-1.9v-7
		l-0.5-0.3c-1.2-0.7-2-2.1-2-3.6c0-2.4,1.8-4.2,4.2-4.2c2.3,0,4.2,1.9,4.2,4.2C44.1,53.1,43.4,54.5,42.3,55.2z"/>
</g>
</svg>
